<svg xmlns="http://www.w3.org/2000/svg" viewBox="0 0 64 64" role="img" aria-label="Brushwork's Garage favicon">
  <defs>
    <linearGradient id="bg" x1="0%" x2="100%" y1="0%" y2="100%">
      <stop offset="0%" stop-color="#fff8ec" />
      <stop offset="100%" stop-color="#f0ddbd" />
    </linearGradient>
    <linearGradient id="paint" x1="0%" x2="100%" y1="0%" y2="100%">
      <stop offset="0%" stop-color="#f3a40d" />
      <stop offset="100%" stop-color="#c9472b" />
    </linearGradient>
  </defs>
  <rect width="64" height="64" rx="16" fill="#122634" />
  <path
    d="M32 6 58 32 32 58 6 32Z"
    fill="url(#bg)"
    stroke="#122634"
    stroke-width="2.5"
  />
  <path
    d="M18 20h15c4.8 0 8 2.2 8 6.2 0 2.9-1.8 4.9-4.4 5.9 3 0.8 5.7 2.9 5.7 7 0 5.2-4.2 8.9-11.4 8.9H18Z"
    fill="#f3a40d"
    opacity=".18"
  />
  <path
    d="M17 18h14.5c5 0 8.2 2.4 8.2 6.4 0 2.8-1.8 4.8-4.5 5.8 3.5 0.8 6.1 3.1 6.1 7.1 0 5.6-4.6 9.2-11.5 9.2H17Z"
    fill="#f3a40d"
    opacity=".92"
  />
  <path
    d="M17 18h5.4v28H17Zm5.4 0h7.9c3.3 0 5.2 1.5 5.2 4 0 2.9-2.2 4.3-5.8 4.3h-7.3Zm0 12.6h8.5c3.9 0 6.1 1.4 6.1 4.5 0 2.9-2.2 4.8-6 4.8h-8.6Z"
    fill="#122634"
  />
  <path
    d="M41 14c1.5 0 2.9.8 3.8 2.2.9 1.4 1.3 3.2 1 5l-1.6 10.4c-.3 1.9-1.2 3.3-2.6 4l-2.1 1 3.3 9.2h-4.7l-3-8.3h-5.8v-4.4h6.9l1.7-.8c.3-.2.6-.6.7-1.4l1.6-10.4c.1-.8 0-1.3-.3-1.7-.3-.4-.6-.6-1-.6Z"
    fill="url(#paint)"
  />
</svg>
